<svg width="24" height="24" viewBox="0 0 24 24" fill="none" xmlns="http://www.w3.org/2000/svg">
<path d="M22 11.9694C21.9993 11.6857 21.9384 11.4053 21.8213 11.1468C21.7043 10.8883 21.5338 10.6575 21.321 10.4696L11.9954 2.27142C11.7545 2.07445 11.4465 1.97858 11.1362 2.00403C10.8259 2.02947 10.5377 2.17423 10.3322 2.4078C10.1267 2.64137 10.02 2.94551 10.0346 3.25612C10.0492 3.56673 10.1839 3.85955 10.4104 4.07286L17.6154 10.4054C17.647 10.4334 17.6694 10.4703 17.6795 10.5113C17.6896 10.5523 17.687 10.5953 17.6721 10.6348C17.6572 10.6743 17.6306 10.7083 17.5959 10.7324C17.5612 10.7564 17.52 10.7694 17.4778 10.7695H3.20125C2.88266 10.7695 2.57712 10.8959 2.35184 11.121C2.12656 11.346 2 11.6512 2 11.9694C2 12.2876 2.12656 12.5928 2.35184 12.8178C2.57712 13.0428 2.88266 13.1692 3.20125 13.1692H17.4753C17.5175 13.1696 17.5586 13.1828 17.5932 13.207C17.6278 13.2311 17.6543 13.2652 17.6692 13.3046C17.6841 13.3441 17.6867 13.3872 17.6766 13.4281C17.6666 13.4691 17.6444 13.5061 17.6129 13.5342L10.4079 19.8667C10.2819 19.9684 10.1778 20.0945 10.1018 20.2373C10.0258 20.3802 9.97958 20.537 9.96582 20.6982C9.95205 20.8594 9.97107 21.0217 10.0217 21.1754C10.0724 21.3291 10.1536 21.4709 10.2606 21.5924C10.3675 21.7139 10.498 21.8126 10.6441 21.8824C10.7902 21.9523 10.9489 21.9919 11.1107 21.9989C11.2726 22.0059 11.4341 21.9801 11.5857 21.9231C11.7373 21.8662 11.8758 21.7792 11.9929 21.6674L21.3201 13.4692C21.5332 13.2814 21.7039 13.0506 21.8211 12.7921C21.9383 12.5336 21.9993 12.2532 22 11.9694Z" fill="black"/>
</svg>
