<svg width="32" height="32" viewBox="0 0 32 32" fill="none" xmlns="http://www.w3.org/2000/svg">
<path fill-rule="evenodd" clip-rule="evenodd" d="M16.7831 8.20833C16.7447 8.21844 16.7063 8.22905 16.668 8.24014C15.6076 8.54731 14.6882 9.21209 14.0679 10.1201C13.5768 10.8389 12.5924 11.026 11.869 10.5382C11.1456 10.0503 10.9572 9.07217 11.4483 8.35343C12.4821 6.84008 14.0145 5.73209 15.7818 5.22015C16.2183 5.09369 16.6624 5.00557 17.1092 4.95544C16.3162 4.5214 15.3923 4.37671 14.4992 4.55145C13.6414 4.71926 12.8091 4.1644 12.6401 3.31208C12.4712 2.45977 13.0297 1.6328 13.8875 1.46497C15.6535 1.11947 17.4855 1.46026 19.0061 2.41711C19.9644 3.02013 20.7529 3.83887 21.3153 4.79596C22.3786 4.40102 23.5272 4.2496 24.6737 4.36478C26.48 4.5462 28.1574 5.3766 29.3909 6.70003C29.9851 7.33736 29.9467 8.3325 29.3052 8.92277C28.6638 9.51301 27.662 9.47482 27.0681 8.8375C26.3587 8.07644 25.3941 7.59889 24.3554 7.49456L24.344 7.49343C24.6306 7.80215 24.8905 8.1382 25.1191 8.49851C26.0822 10.0177 26.4136 11.8495 26.0429 13.6069C25.8637 14.4571 25.0245 15.0019 24.1688 14.8237C23.3131 14.6456 22.7648 13.8119 22.9442 12.9617C23.1464 12.0031 22.9657 11.004 22.4402 10.1753C22.0204 9.51322 21.4068 9.00137 20.6887 8.70366C19.7876 9.31559 19.0292 10.3175 18.4532 11.7036C17.8795 13.084 17.524 14.7637 17.3899 16.5947C18.5451 16.8851 19.6657 17.363 20.724 18.0161C22.359 19.0251 23.806 20.4275 24.996 22.1276C24.3159 22.3088 23.5753 22.6982 23.0803 23.4763C22.8971 23.764 22.7095 23.9993 22.5261 24.1862C21.7321 24.994 20.3321 24.994 19.5381 24.1862C19.3819 24.027 19.2222 23.8326 19.0646 23.5996C18.2475 22.3912 16.8365 22.1289 16.0001 22.1289C15.1636 22.1289 13.7526 22.3912 12.9355 23.5996C12.7779 23.8326 12.6183 24.027 12.462 24.1862C11.668 24.994 10.2681 24.994 9.47408 24.1862C9.29064 23.9993 9.10291 23.764 8.91974 23.4763C8.13659 22.2452 6.7385 21.9872 5.93827 21.987C5.50448 21.9869 4.90234 22.062 4.3159 22.3205C5.53063 20.5335 7.02459 19.063 8.72109 18.0161C10.4361 16.9576 12.315 16.3594 14.2392 16.2734C14.3972 14.2217 14.8074 12.2342 15.5269 10.503C15.8657 9.6875 16.2813 8.91119 16.7831 8.20833ZM7.39096 25.4021C7.14028 24.821 6.56376 24.4456 5.92744 24.4489C5.29115 24.4523 4.71873 24.834 4.47435 25.4178C4.29482 25.8467 4.02138 26.2303 3.67391 26.5411C3.32644 26.8517 2.91367 27.0817 2.46559 27.214C1.62757 27.4617 1.15022 28.3373 1.3994 29.1699C1.64858 30.0026 2.52993 30.4768 3.36795 30.2293C4.26683 29.9638 5.09486 29.5025 5.7919 28.8792C5.84017 28.836 5.88772 28.7922 5.93456 28.7477C6.2996 29.1019 6.70684 29.4148 7.14944 29.6786C9.35907 30.9961 12.5769 30.9961 14.7865 29.6786C15.2286 29.4152 15.6353 29.1027 16 28.749C16.3647 29.1027 16.7715 29.4152 17.2135 29.6786C19.4231 30.9961 22.6409 30.9961 24.8506 29.6786C25.2932 29.4148 25.7004 29.1019 26.0655 28.7477C26.1124 28.7922 26.1599 28.836 26.2082 28.8792C26.9051 29.5025 27.7332 29.9638 28.6321 30.2293C29.4701 30.4768 30.3515 30.0026 30.6006 29.1699C30.8498 28.3373 30.3724 27.4617 29.5344 27.214C29.0863 27.0817 28.6735 26.8517 28.3261 26.5411C27.9786 26.2303 27.7051 25.8467 27.5257 25.4178C27.2813 24.834 26.7088 24.4523 26.0725 24.4489C25.4363 24.4456 24.8597 24.821 24.6091 25.4021C24.325 26.0604 23.8396 26.6128 23.2215 26.9813C22.0146 27.7008 20.0494 27.7008 18.8424 26.9813C18.2244 26.6128 17.7389 26.0604 17.455 25.4021C17.2055 24.8239 16.6332 24.4489 16 24.4489C15.3668 24.4489 14.7945 24.8239 14.545 25.4021C14.2611 26.0604 13.7756 26.6128 13.1576 26.9813C11.9506 27.7008 9.98535 27.7008 8.77837 26.9813C8.16036 26.6128 7.67492 26.0604 7.39096 25.4021Z" fill="#0066FF"/>
</svg>
