<svg width="24" height="24" viewBox="0 0 24 24" fill="none" xmlns="http://www.w3.org/2000/svg">
<path d="M8.69588 10.2632L11.2727 8.47368H14.4468L13.4542 5.78947H11.0909V4H14.7273L15.7199 6.68421H19.2727V9.36842H16.7125L18.0368 12.9493C20.2371 13.0157 22 14.792 22 16.9737C22 19.1974 20.1685 21 17.9091 21C15.6497 21 13.8182 19.1974 13.8182 16.9737C13.8182 15.3383 14.8088 13.9306 16.2317 13.3003L15.1085 10.2632H14.2471L12.8091 15.5153L10.1503 16.4716C10.1711 16.6361 10.1818 16.8037 10.1818 16.9737C10.1818 19.1974 8.35025 21 6.09091 21C3.83156 21 2 19.1974 2 16.9737C2 15.2206 3.13837 13.7292 4.72727 13.1765V12.0526H2.90909V10.2632H8.69588ZM6.09091 19.2105C7.3461 19.2105 8.36364 18.209 8.36364 16.9737C8.36364 15.7383 7.3461 14.7368 6.09091 14.7368C4.83572 14.7368 3.81818 15.7383 3.81818 16.9737C3.81818 18.209 4.83572 19.2105 6.09091 19.2105ZM17.9091 19.2105C19.1643 19.2105 20.1818 18.209 20.1818 16.9737C20.1818 15.7383 19.1643 14.7368 17.9091 14.7368C16.6539 14.7368 15.6364 15.7383 15.6364 16.9737C15.6364 18.209 16.6539 19.2105 17.9091 19.2105Z" fill="#31393B"/>
</svg>
