<svg width="24" height="24" viewBox="0 0 24 24" fill="none" xmlns="http://www.w3.org/2000/svg">
<path fill-rule="evenodd" clip-rule="evenodd" d="M18.1204 4C19.5189 4.00018 20.7655 4.94267 21.2473 6.17363L21.3336 6.42399L21.3378 6.43761L22.4927 10.5932C22.5492 10.6988 22.585 10.8168 22.5894 10.9441L22.7661 11.5778L22.7713 11.5998C22.8686 11.9921 23 12.5012 23 13.0287C22.9999 13.556 22.8686 14.0653 22.7713 14.4575C22.77 14.4627 22.7685 14.468 22.7671 14.4732C22.6125 15.0447 22.4071 15.7693 22.2411 16.3483C22.158 16.6383 22.0849 16.8932 22.0322 17.0753C22.0059 17.166 21.9844 17.2388 21.9698 17.289C21.9626 17.3138 21.957 17.3334 21.9532 17.3466C21.9513 17.3531 21.95 17.3589 21.949 17.3623C21.9487 17.3636 21.9482 17.3647 21.948 17.3655L21.9469 17.3665C21.847 17.7088 21.5348 17.9446 21.1808 17.9447H18.8033C18.671 18.4008 18.4275 18.821 18.0881 19.163C17.5559 19.6993 16.8333 19.9998 16.0808 20C15.3281 20 14.6057 19.6992 14.0734 19.163C13.7339 18.8209 13.4899 18.4009 13.3571 17.9447H9.62203C9.48965 18.4008 9.24615 18.821 8.90682 19.163C8.37464 19.6993 7.65204 19.9998 6.89945 20C6.14676 20 5.42439 19.6992 4.89208 19.163C4.55258 18.8209 4.30857 18.4009 4.17583 17.9447H1.79837C1.35744 17.9447 1 17.5846 1 17.1402V6.86081C1 6.10217 1.29929 5.37447 1.83164 4.83803C2.36397 4.30171 3.08624 4 3.83901 4H18.1204ZM6.89945 15.8884C6.57025 15.8884 6.2539 16.0206 6.02103 16.2551C5.78821 16.4897 5.65728 16.8085 5.65718 17.1402C5.65728 17.4719 5.78831 17.7898 6.02103 18.0244C6.25393 18.259 6.57008 18.391 6.89945 18.391C7.22856 18.3908 7.5441 18.2589 7.77683 18.0244C8.00942 17.7898 8.14058 17.4718 8.14067 17.1402C8.14058 16.8085 8.00964 16.4897 7.77683 16.2551C7.54411 16.0207 7.22848 15.8886 6.89945 15.8884ZM16.0808 15.8884C15.7516 15.8884 15.4352 16.0206 15.2023 16.2551C14.9695 16.4897 14.8386 16.8085 14.8385 17.1402C14.8386 17.4719 14.9696 17.7898 15.2023 18.0244C15.4352 18.259 15.7514 18.391 16.0808 18.391C16.4099 18.3908 16.7254 18.2589 16.9581 18.0244C17.1907 17.7898 17.3219 17.4718 17.322 17.1402C17.3219 16.8085 17.1909 16.4897 16.9581 16.2551C16.7254 16.0207 16.4098 15.8886 16.0808 15.8884ZM2.59675 16.3357H4.17583C4.3086 15.8798 4.55269 15.4594 4.89208 15.1175C5.42439 14.5813 6.14676 14.2794 6.89945 14.2794C7.65204 14.2796 8.37464 14.5812 8.90682 15.1175C9.24608 15.4594 9.48952 15.8798 9.62203 16.3357H13.3571C13.4899 15.8798 13.734 15.4594 14.0734 15.1175C14.6057 14.5813 15.3281 14.2794 16.0808 14.2794C16.8334 14.2796 17.5559 14.5812 18.0881 15.1175C18.4274 15.4594 18.6708 15.8798 18.8033 16.3357H20.582C20.6196 16.2056 20.6628 16.0591 20.7078 15.9021C20.8734 15.3246 21.0752 14.6093 21.2265 14.05C21.3309 13.6287 21.4032 13.3196 21.4033 13.0287C21.4033 12.7338 21.3291 12.4195 21.2224 11.9895L21.1631 11.7769H2.59675V16.3357ZM3.83901 5.60901C3.50973 5.60901 3.19348 5.74108 2.96059 5.97564C2.72769 6.21034 2.59675 6.5289 2.59675 6.86081V10.1679H7.12087V5.60901H3.83901ZM8.71762 10.1679H14.2615V5.60901H8.71762V10.1679ZM15.8583 10.1679H20.7161L19.8044 6.88595L19.7587 6.75606C19.5039 6.11251 18.8256 5.60919 18.1204 5.60901H15.8583V10.1679Z" fill="black"/>
</svg>
