<svg width="24" height="24" viewBox="0 0 24 24" fill="none" xmlns="http://www.w3.org/2000/svg">
<path d="M12 1.99219C10.1897 1.99252 8.41346 2.48426 6.86073 3.41495C5.308 4.34564 4.03703 5.68037 3.1834 7.27677C2.32977 8.87317 1.92551 10.6713 2.01372 12.4795C2.10194 14.2876 2.67932 16.0379 3.6843 17.5436C4.68927 19.0493 6.08413 20.254 7.72008 21.0291C9.35604 21.8043 11.1717 22.1208 12.9734 21.9449C14.7752 21.769 16.4954 21.1073 17.9505 20.0304C19.4057 18.9535 20.5412 17.5018 21.236 15.8302C21.577 15.0102 20.76 14.1862 19.938 14.5202C18.5292 15.0909 16.9649 15.1498 15.5172 14.6866C14.0694 14.2235 12.8298 13.2676 12.0137 11.9852C11.1977 10.7028 10.8569 9.17497 11.0506 7.66734C11.2444 6.15972 11.9603 4.76765 13.074 3.73319L13.151 3.65319C13.702 3.02319 13.264 2.00019 12.393 2.00019H12.127L12.059 1.99419L11.999 1.99219H12Z" fill="url(#paint0_linear_653_2802)"/>
<defs>
<linearGradient id="paint0_linear_653_2802" x1="11.6587" y1="1.99219" x2="11.6587" y2="21.9922" gradientUnits="userSpaceOnUse">
<stop stop-color="#BDD2FA"/>
<stop offset="1" stop-color="#769FF7"/>
</linearGradient>
</defs>
</svg>
