<svg width="24" height="24" viewBox="0 0 24 24" fill="none" xmlns="http://www.w3.org/2000/svg">
<path d="M18.6231 2.50977C18.827 2.50977 19.0273 2.51718 19.2275 2.53572C19.487 2.55797 19.7021 2.74706 19.7577 2.99919C19.8133 3.25132 19.6984 3.51457 19.4722 3.64063C17.8259 4.57499 16.7136 6.3473 16.7136 8.37916C16.7136 11.3824 19.1422 13.8147 22.1344 13.8147C22.4532 13.8147 22.7647 13.7888 23.065 13.7369C23.3208 13.6924 23.5767 13.8184 23.6953 14.052C23.814 14.2856 23.7658 14.5637 23.5804 14.7454C22.3012 15.9912 20.5511 16.7624 18.6268 16.7624C18.282 16.7624 17.9446 16.7365 17.6109 16.692C17.1956 15.854 16.506 15.1755 15.6606 14.7751C15.5605 12.606 13.7956 10.8708 11.6117 10.8189C11.5487 10.4333 11.5153 10.0402 11.5153 9.6398C11.5116 5.70215 14.6929 2.50977 18.6231 2.50977ZM16.8471 18.5236C16.8471 20.1624 15.5197 21.4898 13.8809 21.4898H3.79946C1.83434 21.4898 0.240005 19.8955 0.240005 17.9304C0.240005 16.1655 1.52289 14.7046 3.20622 14.4228V14.3746C3.20622 12.4095 4.80056 10.8152 6.76567 10.8152C8.05968 10.8152 9.19055 11.5048 9.81346 12.5356C10.2955 12.1982 10.8813 12.0016 11.5116 12.0016C13.1504 12.0016 14.4778 13.329 14.4778 14.9679C14.4778 15.1866 14.4556 15.4017 14.4074 15.6056C15.7941 15.854 16.8471 17.0664 16.8471 18.5236Z" fill="url(#paint0_linear_653_2801)"/>
<path d="M18.6231 2.50977C18.827 2.50977 19.0272 2.51718 19.2275 2.53572C19.487 2.55797 19.7021 2.74706 19.7577 2.99919C19.8133 3.25132 19.6983 3.51457 19.4722 3.64063C17.8259 4.57499 16.7136 6.3473 16.7136 8.37916C16.7136 11.3824 19.1422 13.8147 22.1343 13.8147C22.4532 13.8147 22.7647 13.7888 23.065 13.7369C23.3208 13.6924 23.5767 13.8184 23.6953 14.052C23.814 14.2856 23.7658 14.5637 23.5804 14.7454C22.3012 15.9912 20.5511 16.7624 18.6268 16.7624C18.282 16.7624 17.9446 16.7365 17.6109 16.692C17.1956 15.854 16.506 15.1755 15.6606 14.7751C15.5605 12.606 13.7956 10.8708 11.6117 10.8189C11.5487 10.4333 11.5153 10.0402 11.5153 9.6398C11.5116 5.70215 14.6929 2.50977 18.6231 2.50977Z" fill="#EABC53"/>
<path d="M18.6231 2.50977C18.827 2.50977 19.0272 2.51718 19.2275 2.53572C19.487 2.55797 19.7021 2.74706 19.7577 2.99919C19.8133 3.25132 19.6983 3.51457 19.4722 3.64063C17.8259 4.57499 16.7136 6.3473 16.7136 8.37916C16.7136 11.3824 19.1422 13.8147 22.1343 13.8147C22.4532 13.8147 22.7647 13.7888 23.065 13.7369C23.3208 13.6924 23.5767 13.8184 23.6953 14.052C23.814 14.2856 23.7658 14.5637 23.5804 14.7454C22.3012 15.9912 20.5511 16.7624 18.6268 16.7624C18.282 16.7624 17.9446 16.7365 17.6109 16.692C17.1956 15.854 16.506 15.1755 15.6606 14.7751C15.5605 12.606 13.7956 10.8708 11.6117 10.8189C11.5487 10.4333 11.5153 10.0402 11.5153 9.6398C11.5116 5.70215 14.6929 2.50977 18.6231 2.50977Z" fill="url(#paint1_linear_653_2801)"/>
<defs>
<linearGradient id="paint0_linear_653_2801" x1="12" y1="2.50977" x2="12" y2="21.4898" gradientUnits="userSpaceOnUse">
<stop stop-color="#628FF6"/>
<stop offset="1" stop-color="#626E88"/>
</linearGradient>
<linearGradient id="paint1_linear_653_2801" x1="17.6377" y1="2.50977" x2="17.6377" y2="16.7624" gradientUnits="userSpaceOnUse">
<stop stop-color="#BDD2FA"/>
<stop offset="1" stop-color="#769FF7"/>
</linearGradient>
</defs>
</svg>
