<svg width="24" height="24" viewBox="0 0 24 24" fill="none" xmlns="http://www.w3.org/2000/svg">
<path d="M22 16C22.5523 16 23 16.4477 23 17V18.6006C22.9996 19.5302 22.5976 20.4034 21.9131 21.0332C21.2315 21.6603 20.3235 21.9996 19.3926 22H4.6084C3.67714 22 2.76873 21.6605 2.08691 21.0332C1.40239 20.4034 1.00012 19.5303 1 18.6006V17C1 16.4477 1.44772 16 2 16C2.55228 16 3 16.4477 3 17V18.6006C3.00012 18.9436 3.14789 19.2915 3.44141 19.5615C3.73781 19.8341 4.15644 20 4.6084 20H19.3916L19.5596 19.9922C19.9466 19.9565 20.2992 19.7992 20.5586 19.5605C20.8519 19.2906 20.9996 18.9435 21 18.6006V17C21 16.4477 21.4477 16 22 16Z" fill="black"/>
<path d="M12 1C12.5523 1 13 1.44772 13 2V14.2969L17.2412 9.34961C17.6006 8.93029 18.2311 8.8818 18.6504 9.24121C19.0697 9.60063 19.1182 10.2311 18.7588 10.6504L12.7588 17.6504C12.7552 17.6546 12.7507 17.658 12.7471 17.6621C12.7293 17.6821 12.7107 17.7012 12.6914 17.7197C12.6816 17.7292 12.6713 17.7381 12.6611 17.7471C12.6469 17.7596 12.6331 17.7724 12.6182 17.7842C12.6074 17.7927 12.5961 17.8005 12.585 17.8086C12.564 17.8238 12.5426 17.838 12.5205 17.8516C12.5146 17.8552 12.5089 17.8588 12.5029 17.8623C12.4781 17.8768 12.4529 17.8909 12.4268 17.9033C12.4225 17.9053 12.4183 17.9072 12.4141 17.9092C12.3873 17.9214 12.36 17.9325 12.332 17.9424C12.3252 17.9448 12.3184 17.947 12.3115 17.9492C12.2878 17.957 12.2637 17.9637 12.2393 17.9697C12.2288 17.9723 12.2185 17.9753 12.208 17.9775C12.1409 17.9918 12.0714 18 12 18C11.9283 18 11.8585 17.9919 11.791 17.9775C11.7805 17.9753 11.7702 17.9723 11.7598 17.9697C11.7353 17.9637 11.7112 17.957 11.6875 17.9492C11.6807 17.947 11.6738 17.9448 11.667 17.9424C11.639 17.9325 11.6117 17.9214 11.585 17.9092L11.582 17.9082L11.5234 17.8789C11.5141 17.8738 11.5053 17.8677 11.4961 17.8623C11.4902 17.8588 11.4844 17.8552 11.4785 17.8516C11.4564 17.838 11.435 17.8238 11.4141 17.8086C11.403 17.8005 11.3917 17.7927 11.3809 17.7842C11.366 17.7724 11.3521 17.7596 11.3379 17.7471C11.3277 17.738 11.3174 17.7292 11.3076 17.7197C11.2883 17.7012 11.2697 17.6821 11.252 17.6621C11.2484 17.6581 11.2447 17.6544 11.2412 17.6504L5.24121 10.6504C4.8818 10.2311 4.93029 9.60063 5.34961 9.24121C5.76893 8.88179 6.39937 8.93029 6.75879 9.34961L11 14.2969V2C11 1.44772 11.4477 1 12 1Z" fill="black"/>
</svg>
