<svg width="24" height="24" viewBox="0 0 24 24" fill="none" xmlns="http://www.w3.org/2000/svg">
<path d="M12 2C17.5228 2 22 6.47715 22 12C22 17.5228 17.5228 22 12 22C10.4535 22 8.98703 21.6471 7.67773 21.0186L2.78223 22.459L1.02344 22.9766L1.54102 21.2178L2.98047 16.3213C2.3523 15.0123 2 13.5461 2 12C2 6.47719 6.4772 2.00006 12 2ZM12 4C7.58177 4.00006 4 7.58176 4 12C4 13.359 4.33782 14.6363 4.93359 15.7549C5.05667 15.9859 5.08461 16.2567 5.01074 16.5078L3.97559 20.0234L7.49219 18.9893L7.58789 18.9658C7.81086 18.9234 8.04307 18.9588 8.24512 19.0664C9.36369 19.6622 10.641 20 12 20C16.4183 20 20 16.4183 20 12C20 7.58172 16.4183 4 12 4ZM15.708 13C15.1145 14.4656 13.6785 15.5 12 15.5C10.3216 15.4999 8.88542 14.4656 8.29199 13H15.708ZM9.5 8.5C10.0523 8.5 10.5 8.94772 10.5 9.5C10.5 10.0523 10.0523 10.5 9.5 10.5C8.94776 10.4999 8.5 10.0522 8.5 9.5C8.5 8.94775 8.94776 8.50006 9.5 8.5ZM14.5 8.5C15.0523 8.5 15.5 8.94772 15.5 9.5C15.5 10.0523 15.0523 10.5 14.5 10.5C13.9478 10.4999 13.5 10.0522 13.5 9.5C13.5 8.94775 13.9478 8.50006 14.5 8.5Z" fill="#31393B"/>
</svg>
