<svg width="24" height="24" viewBox="0 0 24 24" fill="none" xmlns="http://www.w3.org/2000/svg">
<path d="M12 15.9996C12.8 15.9996 13.5125 15.7621 14.1375 15.2871C14.7625 14.8121 15.2167 14.1996 15.5 13.4496H8.5C8.78335 14.1996 9.2375 14.8121 9.8625 15.2871C10.4875 15.7621 11.2 15.9996 12 15.9996ZM9.5 11.9996C9.91665 11.9996 10.2709 11.8538 10.5625 11.5621C10.8541 11.2704 11 10.9163 11 10.4996C11 10.0829 10.8541 9.7288 10.5625 9.4371C10.2709 9.14545 9.91665 8.9996 9.5 8.9996C9.08335 8.9996 8.72915 9.14545 8.4375 9.4371C8.14585 9.7288 8 10.0829 8 10.4996C8 10.9163 8.14585 11.2704 8.4375 11.5621C8.72915 11.8538 9.08335 11.9996 9.5 11.9996ZM14.5 11.9996C14.9166 11.9996 15.2709 11.8538 15.5625 11.5621C15.8541 11.2704 16 10.9163 16 10.4996C16 10.0829 15.8541 9.7288 15.5625 9.4371C15.2709 9.14545 14.9166 8.9996 14.5 8.9996C14.0834 8.9996 13.7291 9.14545 13.4375 9.4371C13.1459 9.7288 13 10.0829 13 10.4996C13 10.9163 13.1459 11.2704 13.4375 11.5621C13.7291 11.8538 14.0834 11.9996 14.5 11.9996ZM7.671 6.4791L10.6 2.67461C10.7833 2.44127 10.9966 2.26627 11.2397 2.14961C11.4827 2.03294 11.7369 1.97461 12.0022 1.97461C12.2674 1.97461 12.5209 2.03294 12.7625 2.14961C13.0041 2.26627 13.2167 2.44127 13.4 2.67461L16.329 6.4791L20.775 7.9746C21.1583 8.10795 21.4583 8.33385 21.675 8.65235C21.8916 8.97085 22 9.3227 22 9.70785C22 9.8857 21.9748 10.0632 21.9242 10.2403C21.8736 10.4175 21.7905 10.5873 21.675 10.7496L18.825 14.8246L18.925 19.1496C18.925 19.6663 18.75 20.1038 18.4 20.4621C18.05 20.8204 17.6319 20.9996 17.1455 20.9996C17.1152 20.9996 16.9583 20.9746 16.675 20.9246L12 19.6246L7.3305 20.9226C7.2435 20.9573 7.1541 20.9788 7.06225 20.9871C6.9704 20.9955 6.88625 20.9996 6.80975 20.9996C6.3199 20.9996 5.90415 20.8188 5.5625 20.4573C5.22085 20.0961 5.05835 19.6518 5.075 19.1246L5.175 14.7933L2.325 10.7246C2.2095 10.5608 2.12642 10.3895 2.07575 10.2108C2.02525 10.032 2 9.8533 2 9.6746C2 9.2913 2.10766 8.94455 2.323 8.63435C2.53833 8.32435 2.839 8.10445 3.225 7.9746L7.671 6.4791ZM8.575 7.7746L3.35 9.5246L6.7 14.3746L6.575 19.5496L12 18.0496L17.425 19.5746L17.3 14.3746L20.65 9.5746L15.425 7.7746L12 3.32461L8.575 7.7746Z" fill="#31393B"/>
</svg>
