<svg width="24" height="24" viewBox="0 0 24 24" fill="none" xmlns="http://www.w3.org/2000/svg">
<path d="M1.5843 13.0069C1.20753 12.0786 1 11.0635 1 10C1 5.58172 4.58172 2 9 2C12.3949 2 15.2959 4.11466 16.4576 7.09864C16.7951 7.0339 17.1436 7 17.5 7C20.5376 7 23 9.46243 23 12.5C23 12.6709 22.9922 12.8399 22.977 13.0069H1.5843ZM4 20C4 19.4477 4.44772 19 5 19H20C20.5523 19 21 19.4477 21 20C21 20.5523 20.5523 21 20 21H5C4.44772 21 4 20.5523 4 20ZM2 16C2 15.4477 2.44772 15 3 15H22C22.5523 15 23 15.4477 23 16C23 16.5523 22.5523 17 22 17H3C2.44772 17 2 16.5523 2 16Z" fill="url(#paint0_linear_1924_5292)"/>
<defs>
<linearGradient id="paint0_linear_1924_5292" x1="12.0001" y1="2" x2="12.0001" y2="21.0006" gradientUnits="userSpaceOnUse">
<stop stop-color="#628FF6"/>
<stop offset="1" stop-color="#8497C0"/>
</linearGradient>
</defs>
</svg>
