<svg width="24" height="24" viewBox="0 0 24 24" fill="none" xmlns="http://www.w3.org/2000/svg">
<path d="M12 22C10.6 22 9.29165 21.7375 8.075 21.2125C6.85835 20.6875 5.8 19.975 4.9 19.075C4 18.175 3.29167 17.1125 2.775 15.8875C2.25834 14.6625 2 13.35 2 11.95C2 10.55 2.25834 9.24585 2.775 8.0375C3.29167 6.82915 4 5.775 4.9 4.875C5.8 3.975 6.85835 3.27084 8.075 2.7625C9.29165 2.25417 10.6 2 12 2C13.4 2 14.7084 2.25417 15.925 2.7625C17.1417 3.27084 18.2 3.975 19.1 4.875C20 5.775 20.7084 6.82915 21.225 8.0375C21.7416 9.24585 22 10.55 22 11.95C22 13.35 21.7416 14.6625 21.225 15.8875C20.7084 17.1125 20 18.175 19.1 19.075C18.2 19.975 17.1417 20.6875 15.925 21.2125C14.7084 21.7375 13.4 22 12 22ZM12 20.55C12.5834 19.95 13.0708 19.2625 13.4625 18.4875C13.8541 17.7125 14.175 16.7917 14.425 15.725H9.6C9.83335 16.725 10.1459 17.625 10.5375 18.425C10.9292 19.225 11.4166 19.9333 12 20.55ZM9.875 20.25C9.45835 19.6166 9.1 18.9334 8.8 18.2C8.5 17.4667 8.25 16.6417 8.05 15.725H4.3C4.93334 16.9083 5.66665 17.8375 6.5 18.5125C7.33335 19.1875 8.45835 19.7666 9.875 20.25ZM14.15 20.225C15.35 19.8417 16.4292 19.2666 17.3875 18.5C18.3458 17.7333 19.1167 16.8084 19.7 15.725H15.975C15.7584 16.625 15.5041 17.4416 15.2125 18.175C14.9208 18.9083 14.5666 19.5917 14.15 20.225ZM3.8 14.225H7.775C7.725 13.775 7.69585 13.3708 7.6875 13.0125C7.67915 12.6542 7.675 12.3 7.675 11.95C7.675 11.5333 7.68335 11.1625 7.7 10.8375C7.71665 10.5125 7.75 10.15 7.8 9.75H3.8C3.68333 10.15 3.60416 10.5083 3.5625 10.825C3.52084 11.1417 3.5 11.5167 3.5 11.95C3.5 12.3833 3.52084 12.7709 3.5625 13.1125C3.60416 13.4542 3.68333 13.825 3.8 14.225ZM9.325 14.225H14.7C14.7667 13.7084 14.8083 13.2875 14.825 12.9625C14.8417 12.6375 14.85 12.3 14.85 11.95C14.85 11.6166 14.8417 11.2958 14.825 10.9875C14.8083 10.6792 14.7667 10.2667 14.7 9.75H9.325C9.25835 10.2667 9.21665 10.6792 9.2 10.9875C9.18335 11.2958 9.175 11.6166 9.175 11.95C9.175 12.3 9.18335 12.6375 9.2 12.9625C9.21665 13.2875 9.25835 13.7084 9.325 14.225ZM16.2 14.225H20.2C20.3167 13.825 20.3958 13.4542 20.4375 13.1125C20.4792 12.7709 20.5 12.3833 20.5 11.95C20.5 11.5167 20.4792 11.1417 20.4375 10.825C20.3958 10.5083 20.3167 10.15 20.2 9.75H16.225C16.275 10.3334 16.3084 10.7792 16.325 11.0875C16.3417 11.3958 16.35 11.6833 16.35 11.95C16.35 12.3166 16.3375 12.6625 16.3125 12.9875C16.2875 13.3125 16.25 13.725 16.2 14.225ZM15.95 8.25H19.7C19.15 7.1 18.3958 6.14165 17.4375 5.375C16.4791 4.60834 15.375 4.06666 14.125 3.75C14.5416 4.36666 14.8959 5.03335 15.1875 5.75C15.4791 6.46665 15.7333 7.3 15.95 8.25ZM9.6 8.25H14.45C14.2667 7.36665 13.9583 6.5125 13.525 5.6875C13.0917 4.8625 12.5834 4.13334 12 3.5C11.4667 3.95 11.0166 4.54167 10.65 5.275C10.2833 6.00835 9.93335 7 9.6 8.25ZM4.3 8.25H8.075C8.25835 7.35 8.49165 6.54585 8.775 5.8375C9.05835 5.12915 9.41665 4.44167 9.85 3.775C8.6 4.09167 7.50835 4.625 6.575 5.375C5.64165 6.125 4.88334 7.08335 4.3 8.25Z" fill="black"/>
</svg>
