<svg width="24" height="24" viewBox="0 0 24 24" fill="none" xmlns="http://www.w3.org/2000/svg">
<path d="M3.475 6.87745C3.475 5.43434 5.07917 4.5324 6.3625 5.25395C6.9581 5.58883 7.325 6.2077 7.325 6.87745C7.325 8.32055 5.72083 9.2225 4.4375 8.50094C3.8419 8.16607 3.475 7.54719 3.475 6.87745ZM3.2 12.1566C2.85625 12.5315 2.65 13.0303 2.65 13.5726C2.65 14.1149 2.85625 14.6137 3.2 14.9887V12.1566ZM8.16375 10.5062C7.14281 11.3867 6.5 12.6755 6.5 14.1082C6.5 15.2565 6.9125 16.311 7.6 17.1378V17.8575C7.6 18.4501 7.10844 18.9288 6.5 18.9288H4.3C3.69156 18.9288 3.2 18.4501 3.2 17.8575V16.9604C1.90063 16.3578 1 15.069 1 13.5726C1 11.5005 2.72219 9.82333 4.85 9.82333H5.95C6.775 9.82333 7.53813 10.0744 8.16375 10.5029V10.5062ZM16.4 17.8575V17.1378C17.0875 16.311 17.5 15.2565 17.5 14.1082C17.5 12.6755 16.8572 11.3867 15.8362 10.5029C16.4619 10.0744 17.225 9.82333 18.05 9.82333H19.15C21.2778 9.82333 23 11.5005 23 13.5726C23 15.069 22.0994 16.3578 20.8 16.9604V17.8575C20.8 18.4501 20.3084 18.9288 19.7 18.9288H17.5C16.8916 18.9288 16.4 18.4501 16.4 17.8575ZM16.675 6.87745C16.675 5.43434 18.2792 4.5324 19.5625 5.25395C20.1581 5.58883 20.525 6.2077 20.525 6.87745C20.525 8.32055 18.9208 9.2225 17.6375 8.50094C17.0419 8.16607 16.675 7.54719 16.675 6.87745ZM20.8 12.1566V14.992C21.1437 14.6137 21.35 14.1183 21.35 13.576C21.35 13.0337 21.1437 12.5349 20.8 12.1599V12.1566ZM12 5.0028C13.6936 5.0028 14.752 6.78818 13.9053 8.21648C13.5123 8.87936 12.786 9.28771 12 9.28771C10.3064 9.28771 9.24796 7.50233 10.0947 6.07403C10.4877 5.41115 11.214 5.0028 12 5.0028ZM9.25 14.1082C9.25 14.6505 9.45625 15.146 9.8 15.5243V12.6922C9.45625 13.0705 9.25 13.5659 9.25 14.1082ZM14.2 12.6922V15.5276C14.5437 15.1493 14.75 14.6539 14.75 14.1116C14.75 13.5693 14.5437 13.0705 14.2 12.6956V12.6922ZM16.4 14.1082C16.4 15.6046 15.4994 16.8934 14.2 17.496V18.9288C14.2 19.5213 13.7084 20 13.1 20H10.9C10.2916 20 9.8 19.5213 9.8 18.9288V17.496C8.50063 16.8934 7.6 15.6046 7.6 14.1082C7.6 12.0361 9.32219 10.3589 11.45 10.3589H12.55C14.6778 10.3589 16.4 12.0361 16.4 14.1082Z" fill="#31393B"/>
</svg>
