<svg width="80" height="80" viewBox="0 0 80 80" fill="none" xmlns="http://www.w3.org/2000/svg">
<path d="M35.5017 50.295C35.5017 42.38 26.9333 37.433 20.0787 41.3906C13.2241 45.3481 13.2241 55.2419 20.0787 59.1995C21.6419 60.102 23.4147 60.5771 25.2197 60.577C30.8981 60.5767 35.5017 55.9734 35.5017 50.295ZM22.6492 50.295C22.6492 48.3163 24.7912 47.0795 26.5049 48.0689C28.2186 49.0583 28.2186 51.5317 26.5049 52.5211C26.1142 52.7467 25.6709 52.8655 25.2197 52.8655C23.8 52.8655 22.6492 51.7147 22.6492 50.295ZM75.3442 37.4426H69.9912C67.0425 10.8925 36.4583 -2.50928 14.9396 13.3194C6.04231 19.864 0.791966 30.2533 0.799997 41.2983V49.0098C0.814184 62.4905 11.7389 73.4153 25.2197 73.4294H38.0721C51.5529 73.4153 62.4776 62.4905 62.4918 49.0098V45.154H75.3442C78.3124 45.1539 80.1675 41.9407 78.6833 39.3703C77.9946 38.1774 76.7217 37.4426 75.3442 37.4426ZM8.5115 49.0098V41.2983C8.49153 20.5213 30.9708 7.51403 48.9743 17.8853C56.1587 22.024 61.0422 29.2352 62.2187 37.4426H45.7836C43.6541 37.4425 41.9279 39.1688 41.9279 41.2983V49.0098C41.9279 61.8717 28.0044 69.9105 16.8656 63.4795C11.696 60.4949 8.5115 54.979 8.5115 49.0098ZM54.7803 49.0098C54.7723 55.962 50.4655 62.1848 43.9618 64.6416C47.6339 60.2609 49.6442 54.726 49.6393 49.0098V45.154H54.7803V49.0098Z" fill="#8CA865"/>
</svg>
