<svg width="80" height="80" viewBox="0 0 80 80" fill="none" xmlns="http://www.w3.org/2000/svg">
<path d="M5.7334 33.1667C5.7334 34.2391 5.94464 35.3011 6.35505 36.2919C6.76546 37.2827 7.36701 38.183 8.12536 38.9414C8.88371 39.6997 9.78399 40.3013 10.7748 40.7117C11.7656 41.1221 12.8276 41.3333 13.9001 41.3333C14.9725 41.3333 16.0345 41.1221 17.0253 40.7117C18.0161 40.3013 18.9164 39.6997 19.6748 38.9414C20.4331 38.183 21.0347 37.2827 21.4451 36.2919C21.8555 35.3011 22.0667 34.2391 22.0667 33.1667C22.0667 32.0942 21.8555 31.0322 21.4451 30.0414C21.0347 29.0506 20.4331 28.1503 19.6748 27.392C18.9164 26.6336 18.0161 26.0321 17.0253 25.6217C16.0345 25.2112 14.9725 25 13.9001 25C12.8276 25 11.7656 25.2112 10.7748 25.6217C9.78399 26.0321 8.88371 26.6336 8.12536 27.392C7.36701 28.1503 6.76546 29.0506 6.35505 30.0414C5.94464 31.0322 5.7334 32.0942 5.7334 33.1667Z" fill="#8CA865"/>
<path d="M57.9333 33.1667C57.9333 35.3326 58.7938 37.4098 60.3253 38.9414C61.8569 40.4729 63.9341 41.3333 66.1 41.3333C68.266 41.3333 70.3432 40.4729 71.8747 38.9414C73.4063 37.4098 74.2667 35.3326 74.2667 33.1667C74.2667 32.0942 74.0554 31.0322 73.645 30.0414C73.2346 29.0506 72.6331 28.1503 71.8747 27.392C71.1164 26.6336 70.2161 26.0321 69.2253 25.6217C68.2344 25.2112 67.1725 25 66.1 25C65.0276 25 63.9656 25.2112 62.9748 25.6217C61.9839 26.0321 61.0837 26.6336 60.3253 27.392C59.567 28.1503 58.9654 29.0506 58.555 30.0414C58.1446 31.0322 57.9333 32.0942 57.9333 33.1667Z" fill="#8CA865"/>
<path d="M38.3333 15C37.4493 15 36.6014 14.6488 35.9763 14.0237C35.3512 13.3986 35 12.5507 35 11.6667V5.00002C35 4.11597 35.3512 3.26812 35.9763 2.643C36.6014 2.01788 37.4493 1.66669 38.3333 1.66669C39.2174 1.66669 40.0652 2.01788 40.6904 2.643C41.3155 3.26812 41.6667 4.11597 41.6667 5.00002V11.6667C41.6667 12.5507 41.3155 13.3986 40.6904 14.0237C40.0652 14.6488 39.2174 15 38.3333 15Z" fill="#8CA865"/>
<path d="M57.9 9.60005C57.2755 8.97921 56.4307 8.63074 55.55 8.63074C54.6694 8.63074 53.8246 8.97921 53.2 9.60005L48.4667 14.3C48.1543 14.6099 47.9063 14.9786 47.7371 15.3848C47.5678 15.791 47.4807 16.2267 47.4807 16.6667C47.4807 17.1068 47.5678 17.5424 47.7371 17.9486C47.9063 18.3548 48.1543 18.7235 48.4667 19.0334C48.7766 19.3458 49.1453 19.5938 49.5515 19.763C49.9576 19.9322 50.3933 20.0194 50.8334 20.0194C51.2734 20.0194 51.7091 19.9322 52.1153 19.763C52.5215 19.5938 52.8902 19.3458 53.2 19.0334L57.9 14.3C58.5209 13.6755 58.8694 12.8307 58.8694 11.95C58.8694 11.0694 58.5209 10.2246 57.9 9.60005Z" fill="#8CA865"/>
<path d="M25.8334 20C25.3724 20.0207 24.9122 19.9454 24.4819 19.779C24.0516 19.6126 23.6605 19.3587 23.3334 19.0333L18.7667 14.3C18.3179 13.6647 18.1054 12.8925 18.166 12.117C18.2266 11.3416 18.5565 10.6117 19.0985 10.0539C19.6406 9.49601 20.3606 9.14527 21.134 9.06238C21.9074 8.97949 22.6854 9.16968 23.3334 9.6L28.2 14.3C28.5125 14.6099 28.7604 14.9785 28.9297 15.3847C29.0989 15.7909 29.186 16.2266 29.186 16.6667C29.186 17.1067 29.0989 17.5424 28.9297 17.9486C28.7604 18.3548 28.5125 18.7235 28.2 19.0333C27.8886 19.3423 27.5192 19.5867 27.113 19.7526C26.7069 19.9185 26.272 20.0025 25.8334 20Z" fill="#8CA865"/>
<path d="M54.6668 78.3333V55.9C50.5958 55.496 46.7291 53.9208 43.5346 51.3652C40.3401 48.8096 37.9546 45.383 36.6668 41.5L33.8668 33.0667C33.6338 32.3995 33.5489 31.6895 33.6181 30.9862C33.6872 30.2828 33.9087 29.603 34.2672 28.9939C34.6257 28.3849 35.1125 27.8612 35.6938 27.4593C36.2751 27.0574 36.937 26.7869 37.6334 26.6667C38.8155 26.513 40.0137 26.7837 41.0148 27.4308C42.0159 28.0778 42.7548 29.0591 43.1001 30.2L45.8334 38.3667C46.58 40.6494 48.0305 42.6371 49.9767 44.0444C51.923 45.4517 54.265 46.2063 56.6668 46.2H71.0001C72.7682 46.2 74.4639 46.9024 75.7141 48.1526C76.9644 49.4029 77.6668 51.0986 77.6668 52.8667V78.3333H54.6668Z" fill="#8CA865"/>
<path d="M31.8 43.0667V42.6334C30.7147 43.7843 29.401 44.6961 27.9431 45.3102C26.4852 45.9244 24.9151 46.2274 23.3334 46.2H9.03337C7.26526 46.2 5.56956 46.9024 4.31932 48.1527C3.06908 49.4029 2.3667 51.0986 2.3667 52.8667V78.3334H25.3334V55.9C29.3815 55.5156 33.2342 53.9769 36.4334 51.4667C34.3832 48.977 32.8122 46.1289 31.8 43.0667Z" fill="#8CA865"/>
</svg>
