<svg width="24" height="24" viewBox="0 0 24 24" fill="none" xmlns="http://www.w3.org/2000/svg">
<path d="M4.91799 2.01385C5.46243 1.92274 5.9779 2.29072 6.06936 2.83514C6.46612 5.19887 8.52375 7.00008 11 7.00018H13.6719C14.4674 7.00024 15.2304 7.31664 15.793 7.87908L19.457 11.5432C19.8475 11.9337 19.8475 12.5667 19.457 12.9572C19.0665 13.3477 18.4335 13.3478 18.043 12.9572L15 9.91424V21.0002C15 21.5525 14.5523 22.0002 14 22.0002C13.4478 22.0001 13 21.5525 13 21.0002V16.0002H11V21.0002C11 21.5525 10.5523 22.0002 10 22.0002C9.4478 22.0001 9.00002 21.5525 9.00002 21.0002V8.70818C6.47093 7.95515 4.54091 5.81299 4.0967 3.16522C4.00572 2.62081 4.37359 2.10524 4.91799 2.01385ZM12 2.00018C13.1045 2.00018 13.9999 2.8957 14 4.00018C14 5.10475 13.1046 6.00018 12 6.00018C10.8955 6.0001 10 5.1047 10 4.00018C10.0001 2.89574 10.8956 2.00025 12 2.00018Z" fill="black"/>
</svg>
