<svg width="40" height="40" viewBox="0 0 40 40" fill="none" xmlns="http://www.w3.org/2000/svg">
<rect width="40" height="40" rx="20" fill="#5B9F05"/>
<path fill-rule="evenodd" clip-rule="evenodd" d="M14.0152 10.9378C14.283 9.69355 16.0443 9.68466 16.3231 10.9277L16.3592 11.0888C16.7 12.6082 17.9016 13.7612 19.3956 14.0256C20.6783 14.2525 20.6783 16.1053 19.3956 16.3322C17.9016 16.5966 16.7 17.7496 16.3592 19.269L16.3231 19.4301C16.0443 20.6731 14.283 20.6642 14.0152 19.42L13.9854 19.2818C13.6571 17.7565 12.4569 16.5947 10.9601 16.33C9.67996 16.1035 9.67995 14.2543 10.9601 14.0278C12.4569 13.763 13.6571 12.6013 13.9854 11.076L14.0152 10.9378ZM25.7415 16.8239C25.8026 16.7982 25.8684 16.7849 25.9347 16.7849C26.0009 16.7849 26.0667 16.7982 26.1278 16.8239C26.189 16.8496 26.2444 16.8873 26.2907 16.9348L26.2952 16.9394L28.0618 18.7198L28.0669 18.7249C28.1135 18.7712 28.1506 18.8262 28.1759 18.8869C28.2012 18.9476 28.2142 19.0127 28.2142 19.0785C28.2142 19.1442 28.2012 19.2093 28.1759 19.27C28.1506 19.3307 28.1135 19.3858 28.0669 19.4321L28.0622 19.4367L19.669 27.8841L16.8805 28.1258L17.1221 25.3372L25.5695 16.9439L25.5786 16.9348C25.6249 16.8873 25.6804 16.8496 25.7415 16.8239ZM25.9347 14.9991C25.6304 14.9991 25.3292 15.0599 25.0489 15.1779C24.7706 15.2949 24.5184 15.466 24.3069 15.6811L15.6315 24.3009C15.4817 24.4498 15.3895 24.6468 15.3712 24.8572L15.0096 29.03C14.9868 29.2928 15.0813 29.5521 15.2678 29.7385C15.4542 29.925 15.7136 30.0194 15.9763 29.9967L20.149 29.6351C20.3594 29.6168 20.5565 29.5246 20.7053 29.3748L29.327 20.6975C29.5398 20.4857 29.7088 20.234 29.8243 19.9568C29.9403 19.6785 30 19.38 30 19.0785C30 18.777 29.9403 18.4785 29.8243 18.2002C29.7088 17.9231 29.54 17.6715 29.3273 17.4598L27.5652 15.6837C27.3529 15.4674 27.0999 15.2954 26.8204 15.1779C26.5401 15.0599 26.2388 14.9991 25.9347 14.9991Z" fill="white"/>
</svg>
