<svg width="24" height="24" viewBox="0 0 24 24" fill="none" xmlns="http://www.w3.org/2000/svg">
<path d="M7.04861 14C6.62478 14 6.23876 13.7343 6.14586 13.3208C6.05038 12.8958 6 12.4538 6 12C6 8.68629 8.68629 6 12 6C15.3137 6 18 8.68629 18 12C18 14.9745 15.8356 17.4434 12.9958 17.9177C12.4511 18.0087 12 17.5523 12 17V15C12 14.4477 11.5523 14 11 14H7.04861ZM1 12C1 11.4477 1.44772 11 2 11H3C3.55228 11 4 11.4477 4 12C4 12.5523 3.55228 13 3 13H2C1.44772 13 1 12.5523 1 12ZM11 2C11 1.44772 11.4477 1 12 1C12.5523 1 13 1.44772 13 2V3C13 3.55228 12.5523 4 12 4C11.4477 4 11 3.55228 11 3V2ZM4.22183 5.63603C3.8313 5.24551 3.8313 4.61235 4.22183 4.22182C4.61235 3.8313 5.24551 3.8313 5.63604 4.22182L6.34315 4.92893C6.73367 5.31946 6.73367 5.95262 6.34315 6.34315C5.95262 6.73367 5.31946 6.73367 4.92894 6.34314L4.22183 5.63603ZM17.6568 19.0711C17.2663 18.6806 17.2663 18.0474 17.6569 17.6568C18.0474 17.2663 18.6806 17.2663 19.0711 17.6568L19.7782 18.364C20.1687 18.7545 20.1687 19.3877 19.7782 19.7782C19.3877 20.1687 18.7545 20.1687 18.364 19.7782L17.6568 19.0711ZM18.364 4.2218C18.7545 3.83129 19.3877 3.8313 19.7782 4.22182C20.1687 4.61235 20.1687 5.24551 19.7782 5.63603L19.0711 6.34316C18.6806 6.73368 18.0474 6.73368 17.6569 6.34317C17.2663 5.95265 17.2663 5.31944 17.6569 4.92891L18.364 4.2218ZM22 11C22.5523 11 23 11.4477 23 12C23 12.5523 22.5523 13 22 13H21C20.4477 13 20 12.5523 20 12C20 11.4477 20.4477 11 21 11H22Z" fill="#EABC53"/>
<path d="M14 20H7C6.44772 20 6 20.4477 6 21C6 21.5523 6.44772 22 7 22H14C14.5523 22 15 21.5523 15 21C15 20.4477 14.5523 20 14 20Z" fill="black"/>
<path d="M14 20H7C6.44772 20 6 20.4477 6 21C6 21.5523 6.44772 22 7 22H14C14.5523 22 15 21.5523 15 21C15 20.4477 14.5523 20 14 20Z" fill="url(#paint0_linear_1374_3353)"/>
<path d="M9 16H3C2.44772 16 2 16.4477 2 17C2 17.5523 2.44771 18 3 18H9C9.55229 18 10 17.5523 10 17C10 16.4477 9.55229 16 9 16Z" fill="black"/>
<path d="M9 16H3C2.44772 16 2 16.4477 2 17C2 17.5523 2.44771 18 3 18H9C9.55229 18 10 17.5523 10 17C10 16.4477 9.55229 16 9 16Z" fill="url(#paint1_linear_1374_3353)"/>
<defs>
<linearGradient id="paint0_linear_1374_3353" x1="8.5" y1="16" x2="8.5" y2="22" gradientUnits="userSpaceOnUse">
<stop stop-color="#9DBCF9"/>
<stop offset="1" stop-color="#8AAEF8"/>
</linearGradient>
<linearGradient id="paint1_linear_1374_3353" x1="8.5" y1="16" x2="8.5" y2="22" gradientUnits="userSpaceOnUse">
<stop stop-color="#9DBCF9"/>
<stop offset="1" stop-color="#8AAEF8"/>
</linearGradient>
</defs>
</svg>
