<svg width="24" height="24" viewBox="0 0 24 24" fill="none" xmlns="http://www.w3.org/2000/svg">
<g clip-path="url(#clip0_1924_5303)">
<path fill-rule="evenodd" clip-rule="evenodd" d="M5.71346 0.356486C7.0289 -0.0708585 8.43879 -0.114942 9.77835 0.229389C11.1179 0.57372 12.3318 1.29224 13.2781 2.30095C13.9483 3.01539 14.4647 3.85449 14.8007 4.76604C15.4762 4.45404 16.2151 4.28823 16.9686 4.28571H16.9716C18.3355 4.28571 19.6436 4.82755 20.6081 5.79202C21.5725 6.7565 22.1144 8.0646 22.1144 9.42857C22.1144 10.7925 21.5725 12.1006 20.6081 13.0651C19.6436 14.0296 18.3355 14.5714 16.9716 14.5714H7.97156C6.58877 14.5727 5.23416 14.1806 4.06597 13.4406C2.89753 12.7005 1.9639 11.6431 1.37422 10.392C0.784519 9.14091 0.563125 7.7478 0.735915 6.37553C0.908703 5.00325 1.46854 3.70851 2.34997 2.64264C3.23141 1.57678 4.39802 0.78383 5.71346 0.356486ZM8.3502 18.1464C8.66775 17.5113 8.41032 16.739 7.77521 16.4215C7.14008 16.1039 6.3678 16.3613 6.05023 16.9964L5.19308 18.7107C4.87553 19.3459 5.13296 20.1182 5.76809 20.4357C6.4032 20.7533 7.17548 20.4958 7.49306 19.8607L8.3502 18.1464ZM16.175 16.4215C16.8101 16.739 17.0676 17.5113 16.7501 18.1464L15.8929 19.8607C15.5753 20.4958 14.803 20.7533 14.1679 20.4357C13.5328 20.1182 13.2754 19.3459 13.5929 18.7107L14.4501 16.9964C14.7676 16.3613 15.5399 16.1039 16.175 16.4215ZM11.693 21.575C12.0105 20.9398 11.7531 20.1675 11.118 19.8501C10.4829 19.5324 9.71057 19.7899 9.39301 20.425L8.53587 22.1393C8.2183 22.7745 8.47574 23.5467 9.11086 23.8642C9.74597 24.1819 10.5183 23.9244 10.8358 23.2893L11.693 21.575Z" fill="black"/>
<path fill-rule="evenodd" clip-rule="evenodd" d="M5.71346 0.356486C7.0289 -0.0708585 8.43879 -0.114942 9.77835 0.229389C11.1179 0.57372 12.3318 1.29224 13.2781 2.30095C13.9483 3.01539 14.4647 3.85449 14.8007 4.76604C15.4762 4.45404 16.2151 4.28823 16.9686 4.28571H16.9716C18.3355 4.28571 19.6436 4.82755 20.6081 5.79202C21.5725 6.7565 22.1144 8.0646 22.1144 9.42857C22.1144 10.7925 21.5725 12.1006 20.6081 13.0651C19.6436 14.0296 18.3355 14.5714 16.9716 14.5714H7.97156C6.58877 14.5727 5.23416 14.1806 4.06597 13.4406C2.89753 12.7005 1.9639 11.6431 1.37422 10.392C0.784519 9.14091 0.563125 7.7478 0.735915 6.37553C0.908703 5.00325 1.46854 3.70851 2.34997 2.64264C3.23141 1.57678 4.39802 0.78383 5.71346 0.356486ZM8.3502 18.1464C8.66775 17.5113 8.41032 16.739 7.77521 16.4215C7.14008 16.1039 6.3678 16.3613 6.05023 16.9964L5.19308 18.7107C4.87553 19.3459 5.13296 20.1182 5.76809 20.4357C6.4032 20.7533 7.17548 20.4958 7.49306 19.8607L8.3502 18.1464ZM16.175 16.4215C16.8101 16.739 17.0676 17.5113 16.7501 18.1464L15.8929 19.8607C15.5753 20.4958 14.803 20.7533 14.1679 20.4357C13.5328 20.1182 13.2754 19.3459 13.5929 18.7107L14.4501 16.9964C14.7676 16.3613 15.5399 16.1039 16.175 16.4215ZM11.693 21.575C12.0105 20.9398 11.7531 20.1675 11.118 19.8501C10.4829 19.5324 9.71057 19.7899 9.39301 20.425L8.53587 22.1393C8.2183 22.7745 8.47574 23.5467 9.11086 23.8642C9.74597 24.1819 10.5183 23.9244 10.8358 23.2893L11.693 21.575Z" fill="url(#paint0_linear_1924_5303)"/>
</g>
<defs>
<linearGradient id="paint0_linear_1924_5303" x1="11.0572" y1="0" x2="11.0572" y2="24.0003" gradientUnits="userSpaceOnUse">
<stop stop-color="#628FF6"/>
<stop offset="1" stop-color="#416CF4"/>
</linearGradient>
<clipPath id="clip0_1924_5303">
<rect width="24" height="24" fill="white"/>
</clipPath>
</defs>
</svg>
