<svg width="24" height="24" viewBox="0 0 24 24" fill="none" xmlns="http://www.w3.org/2000/svg">
<path d="M14 20H7C6.44772 20 6 20.4477 6 21C6 21.5523 6.44772 22 7 22H14C14.5523 22 15 21.5523 15 21C15 20.4477 14.5523 20 14 20Z" fill="url(#paint0_linear_1922_5276)"/>
<path d="M9 16H3C2.44772 16 2 16.4477 2 17C2 17.5523 2.44771 18 3 18H9C9.55229 18 10 17.5523 10 17C10 16.4477 9.55229 16 9 16Z" fill="url(#paint1_linear_1922_5276)"/>
<path d="M13.3727 1.00195L13.4362 1.00684H13.6842C14.4959 1.00684 14.9046 1.92811 14.3913 2.49512L14.319 2.56738C13.2813 3.49833 12.6138 4.75076 12.4333 6.10742C12.2527 7.46428 12.5702 8.83998 13.3307 9.99414C14.0912 11.1482 15.2471 12.008 16.5963 12.4248C17.9456 12.8416 19.4035 12.789 20.7165 12.2754C21.4825 11.975 22.2432 12.7162 21.9254 13.4541C21.2779 14.9585 20.2201 16.2652 18.8639 17.2344C17.5077 18.2036 15.9044 18.7987 14.2252 18.957C12.8961 19.0823 11.5593 18.9286 10.3034 18.5137C10.7289 18.1469 10.9997 17.6059 10.9997 17C10.9997 15.8954 10.1042 15 8.99966 15H5.57095C5.57006 14.9987 5.56892 14.9974 5.56802 14.9961C4.63146 13.641 4.09359 12.0658 4.01138 10.4385C3.92918 8.81117 4.30567 7.19259 5.10123 5.75586C5.89676 4.31927 7.08103 3.11785 8.52798 2.28027C9.9748 1.44283 11.6302 1.00048 13.317 1L13.3727 1.00195Z" fill="url(#paint2_linear_1922_5276)"/>
<defs>
<linearGradient id="paint0_linear_1922_5276" x1="8.5" y1="6" x2="8.5" y2="22" gradientUnits="userSpaceOnUse">
<stop stop-color="#628FF6"/>
<stop offset="1" stop-color="#626E88"/>
</linearGradient>
<linearGradient id="paint1_linear_1922_5276" x1="8.5" y1="6" x2="8.5" y2="22" gradientUnits="userSpaceOnUse">
<stop stop-color="#628FF6"/>
<stop offset="1" stop-color="#626E88"/>
</linearGradient>
<linearGradient id="paint2_linear_1922_5276" x1="13" y1="1" x2="13" y2="19" gradientUnits="userSpaceOnUse">
<stop stop-color="#BDD2FA"/>
<stop offset="1" stop-color="#769FF7"/>
</linearGradient>
</defs>
</svg>
