<svg width="48" height="48" viewBox="0 0 48 48" fill="none" xmlns="http://www.w3.org/2000/svg">
<g clip-path="url(#clip0_230_1695)">
<path d="M3 33H45V36H3V33Z" fill="black"/>
<path d="M3 39H45V42H3V39Z" fill="black"/>
<path d="M36 15C35.4067 15 34.8266 15.1759 34.3333 15.5056C33.8399 15.8352 33.4554 16.3038 33.2284 16.852C33.0013 17.4001 32.9419 18.0033 33.0576 18.5853C33.1734 19.1672 33.4591 19.7018 33.8787 20.1213C34.2982 20.5409 34.8328 20.8266 35.4147 20.9424C35.9967 21.0581 36.5999 20.9987 37.1481 20.7716C37.6962 20.5446 38.1648 20.1601 38.4944 19.6667C38.8241 19.1734 39 18.5933 39 18C39 17.2044 38.6839 16.4413 38.1213 15.8787C37.5587 15.3161 36.7957 15 36 15Z" fill="black"/>
<path d="M24 24C22.8133 24 21.6533 23.6481 20.6666 22.9888C19.6799 22.3295 18.9109 21.3925 18.4567 20.2961C18.0026 19.1997 17.8838 17.9933 18.1153 16.8295C18.3468 15.6656 18.9182 14.5965 19.7574 13.7574C20.5965 12.9182 21.6656 12.3468 22.8295 12.1153C23.9933 11.8838 25.1997 12.0026 26.2961 12.4567C27.3925 12.9109 28.3295 13.6799 28.9888 14.6666C29.6481 15.6533 30 16.8133 30 18C29.9982 19.5908 29.3655 21.1158 28.2407 22.2407C27.1158 23.3655 25.5908 23.9982 24 24ZM24 15C23.4067 15 22.8266 15.176 22.3333 15.5056C21.8399 15.8352 21.4554 16.3038 21.2284 16.852C21.0013 17.4001 20.9419 18.0033 21.0576 18.5853C21.1734 19.1672 21.4591 19.7018 21.8787 20.1213C22.2982 20.5409 22.8328 20.8266 23.4147 20.9424C23.9967 21.0581 24.5999 20.9987 25.1481 20.7716C25.6962 20.5446 26.1648 20.1601 26.4944 19.6667C26.8241 19.1734 27 18.5933 27 18C26.9992 17.2046 26.6829 16.442 26.1204 15.8796C25.558 15.3171 24.7954 15.0008 24 15Z" fill="black"/>
<path d="M12 15C11.4067 15 10.8266 15.1759 10.3333 15.5056C9.83994 15.8352 9.45543 16.3038 9.22836 16.852C9.0013 17.4001 8.94189 18.0033 9.05765 18.5853C9.1734 19.1672 9.45912 19.7018 9.87868 20.1213C10.2982 20.5409 10.8328 20.8266 11.4147 20.9424C11.9967 21.0581 12.5999 20.9987 13.1481 20.7716C13.6962 20.5446 14.1648 20.1601 14.4944 19.6667C14.8241 19.1734 15 18.5933 15 18C15 17.2044 14.6839 16.4413 14.1213 15.8787C13.5587 15.3161 12.7957 15 12 15Z" fill="black"/>
<path d="M42 30H6C5.20497 29.998 4.44308 29.6813 3.88091 29.1191C3.31874 28.5569 3.00202 27.795 3 27V9C3.00202 8.20497 3.31874 7.44308 3.88091 6.88091C4.44308 6.31874 5.20497 6.00202 6 6H42C42.795 6.00202 43.5569 6.31874 44.1191 6.88091C44.6813 7.44308 44.998 8.20497 45 9V27C44.9989 27.7953 44.6825 28.5578 44.1201 29.1201C43.5578 29.6825 42.7953 29.9989 42 30ZM42 9H6V27H42V9Z" fill="black"/>
</g>
<defs>
<clipPath id="clip0_230_1695">
<rect width="48" height="48" fill="white"/>
</clipPath>
</defs>
</svg>
