<svg width="32" height="32" viewBox="0 0 32 32" fill="none" xmlns="http://www.w3.org/2000/svg">
<path d="M25.9957 12C28.5612 12 30.1646 9.22226 28.8819 7.00004C28.2865 5.96871 27.1863 5.33337 25.9957 5.33337C23.4301 5.33337 21.8267 8.11115 23.1094 10.3334C23.7048 11.3647 24.805 12 25.9957 12ZM4.9954 26.6667H26.783C28.1911 26.6667 29.3284 25.525 29.3284 24.1209C29.3284 23.6542 29.1992 23.1959 28.9576 22.7959L23.4586 13.7834C23.2878 13.5042 22.9879 13.3334 22.6629 13.3334C22.338 13.3334 22.0381 13.5042 21.8673 13.7792L19.8593 17.0709L14.6144 8.70837C14.3395 8.26671 13.8521 8.00004 13.3314 8.00004C12.8106 8.00004 12.3274 8.26671 12.0483 8.70837L3.02494 23.1C2.79165 23.4709 2.66667 23.9 2.66667 24.3375C2.66667 25.625 3.70814 26.6667 4.9954 26.6667Z" fill="#5B9F05"/>
</svg>
