<svg width="24" height="24" viewBox="0 0 24 24" fill="none" xmlns="http://www.w3.org/2000/svg">
<g clip-path="url(#clip0_221_1596)">
<path fill-rule="evenodd" clip-rule="evenodd" d="M3.42854 13.5002C3.07349 13.5002 2.78568 13.2124 2.78568 12.8574V3.42878C2.78568 3.07373 3.07349 2.78592 3.42854 2.78592H20.5714C20.9264 2.78592 21.2142 3.07373 21.2142 3.42878V12.8574C21.2142 13.2124 20.9264 13.5002 20.5714 13.5002H3.42854ZM0.642822 12.8574C0.642822 14.3959 1.89003 15.6431 3.42854 15.6431H20.5714C22.11 15.6431 23.3571 14.3959 23.3571 12.8574V3.42878C23.3571 1.89028 22.11 0.643066 20.5714 0.643066H3.42854C1.89003 0.643066 0.642822 1.89028 0.642822 3.42878V12.8574ZM12 11.5716C10.1064 11.5716 8.57139 10.0366 8.57139 8.14307C8.57139 6.24952 10.1064 4.7145 12 4.7145C13.8935 4.7145 15.4285 6.24952 15.4285 8.14307C15.4285 10.0366 13.8935 11.5716 12 11.5716ZM4.07139 8.14307C4.07139 8.97149 4.74296 9.64307 5.57139 9.64307C6.39982 9.64307 7.07139 8.97149 7.07139 8.14307C7.07139 7.31464 6.39982 6.64307 5.57139 6.64307C4.74296 6.64307 4.07139 7.31464 4.07139 8.14307ZM16.9285 8.14307C16.9285 8.97149 17.6002 9.64307 18.4285 9.64307C19.2569 9.64307 19.9285 8.97149 19.9285 8.14307C19.9285 7.31464 19.2569 6.64307 18.4285 6.64307C17.6002 6.64307 16.9285 7.31464 16.9285 8.14307ZM13.0714 22.7145C13.0714 23.3063 12.5917 23.7859 12 23.7859C11.4082 23.7859 10.9285 23.3063 10.9285 22.7145V19.2859C10.9285 18.6942 11.4082 18.2145 12 18.2145C12.5917 18.2145 13.0714 18.6942 13.0714 19.2859V22.7145ZM16.2857 22.2859C16.8774 22.2859 17.3571 21.8063 17.3571 21.2145V17.7859C17.3571 17.1942 16.8774 16.7145 16.2857 16.7145C15.6939 16.7145 15.2142 17.1942 15.2142 17.7859V21.2145C15.2142 21.8063 15.6939 22.2859 16.2857 22.2859ZM8.78568 21.2145C8.78568 21.8063 8.30599 22.2859 7.71425 22.2859C7.12251 22.2859 6.64282 21.8063 6.64282 21.2145V17.7859C6.64282 17.1942 7.12251 16.7145 7.71425 16.7145C8.30599 16.7145 8.78568 17.1942 8.78568 17.7859V21.2145Z" fill="#31393B"/>
</g>
<defs>
<clipPath id="clip0_221_1596">
<rect width="24" height="24" fill="white"/>
</clipPath>
</defs>
</svg>
