<svg width="80" height="80" viewBox="0 0 80 80" fill="none" xmlns="http://www.w3.org/2000/svg">
<path fill-rule="evenodd" clip-rule="evenodd" d="M63.4072 1.68534C65.7792 1.41968 68.5462 2.17751 70.3005 4.47701C72.4028 7.23268 73.6177 10.96 74.3753 14.74C75.1405 18.5577 75.5068 22.7913 75.6868 26.8757C77.604 28.0022 78.9273 29.9988 79.0682 32.4447C79.1458 33.794 79.2 35.439 79.2 37.4028C79.2 39.3667 79.1458 41.0118 79.068 42.3612C78.97 44.067 78.2965 45.5547 77.2472 46.6807C77.4345 48.191 77.532 49.73 77.532 51.2927V51.3322C77.5322 53.6318 77.5327 60.5567 72.4078 66.8737C67.1727 73.3262 57.269 78.3653 39.1658 78.3653C21.0627 78.3653 11.1592 73.3263 5.92417 66.8737C0.799339 60.5567 0.799838 53.632 0.800005 51.3322V51.2927C0.800005 47.3577 1.41734 43.5782 2.53067 40.0253C2.4885 39.4522 2.46817 38.8705 2.46817 38.2815V38.2075V37.4257V37.4028V37.3778C2.46984 32.3905 2.5015 26.2712 3.096 20.566C3.70867 14.687 4.9775 8.47984 8.0315 4.47701C9.78584 2.17751 12.5528 1.41968 14.9247 1.68534C22.5165 2.53551 28.3927 6.92868 32.6522 12.254C34.808 11.8007 36.9908 11.5607 39.1658 11.5607C41.3412 11.5607 43.524 11.8007 45.6798 12.254C49.9393 6.92868 55.8155 2.53551 63.4072 1.68534ZM9.23384 40.739C9.20917 40.9837 9.15734 41.2257 9.079 41.4603C8.04534 44.5572 7.47234 47.855 7.47234 51.2927C7.47234 53.3292 7.50284 58.229 11.1057 62.6698C14.628 67.0115 22.2393 71.693 39.1658 71.693C56.0923 71.693 63.7037 67.0115 67.2262 62.6698C70.829 58.2288 70.8595 53.329 70.8595 51.2927C70.8595 50.5142 70.8302 49.7432 70.7728 48.9802C68.9902 49.0385 66.8057 49.0795 64.1872 49.0795C60.7773 49.0795 58.103 49.0098 56.0943 48.9232C52.476 48.7672 49.5208 46.0845 49.3065 42.3612C49.2775 41.8613 49.252 41.321 49.2312 40.739H44.1135C44.0927 41.321 44.0672 41.8613 44.0383 42.3612C43.8242 46.0845 40.8687 48.7672 37.2503 48.9232C35.2417 49.0098 32.5673 49.0795 29.1575 49.0795C25.7475 49.0795 23.0733 49.0098 21.0645 48.9232C17.4462 48.7672 14.4908 46.0845 14.2765 42.3612C14.2478 41.8613 14.2222 41.321 14.2015 40.739H9.23384ZM9.15117 34.0667C9.18134 29.9155 9.29617 25.4438 9.73234 21.2575C10.3397 15.4302 11.5105 10.9172 13.3362 8.52418C13.3647 8.48684 13.4238 8.42801 13.5622 8.37684C13.7102 8.32201 13.9262 8.28751 14.182 8.31618C20.0702 8.97568 24.8913 12.7247 28.5872 17.9445C29.4023 19.0958 30.8535 19.6098 32.2115 19.2287C34.5522 18.5717 36.8927 18.2328 39.1658 18.2328C41.4392 18.2328 43.7797 18.5717 46.1203 19.2287C47.4785 19.61 48.9297 19.0958 49.7448 17.9445C53.4407 12.7247 58.2617 8.97568 64.1498 8.31618C64.4058 8.28751 64.6218 8.32201 64.77 8.37684C64.908 8.42801 64.9673 8.48684 64.9958 8.52418C66.1802 10.0767 67.1453 12.6195 67.8332 16.0515C68.423 18.9942 68.7613 22.3342 68.9518 25.776C67.559 25.7453 65.9742 25.7263 64.1873 25.7263C60.7773 25.7263 58.1032 25.7958 56.0943 25.8823C52.476 26.0385 49.5208 28.7212 49.3065 32.4445C49.2777 32.9443 49.2522 33.4847 49.2312 34.0667H44.1135C44.0927 33.4847 44.0672 32.9443 44.0385 32.4447C43.8242 28.7212 40.8688 26.0385 37.2503 25.8823C35.2417 25.7958 32.5673 25.7263 29.1575 25.7263C25.7477 25.7263 23.0733 25.7958 21.0647 25.8823C17.4462 26.0385 14.491 28.7212 14.2767 32.4445C14.2478 32.9443 14.2223 33.4847 14.2015 34.0667H9.15117ZM15.181 55.7715C13.8105 57.003 13.698 59.1123 14.9297 60.4828C18.1632 64.0807 23.53 66.9082 32.1157 67.8872C33.9462 68.096 35.5997 66.7812 35.8083 64.9505C36.0172 63.1198 34.7023 61.4665 32.8717 61.2578C25.4032 60.4062 21.739 58.0778 19.8922 56.0228C18.6607 54.6523 16.5513 54.54 15.181 55.7715Z" fill="#8CA865"/>
</svg>
