<svg width="24" height="24" viewBox="0 0 24 24" fill="none" xmlns="http://www.w3.org/2000/svg">
<g clip-path="url(#clip0_653_2798)">
<path fill-rule="evenodd" clip-rule="evenodd" d="M6.31332 0.356486C7.62876 -0.0708585 9.03866 -0.114942 10.3782 0.229389C11.7178 0.57372 12.9317 1.29224 13.878 2.30095C14.5482 3.01539 15.0646 3.85449 15.4006 4.76604C16.076 4.45404 16.815 4.28823 17.5685 4.28571H17.5714C18.9353 4.28571 20.2435 4.82755 21.2079 5.79202C22.1724 6.7565 22.7143 8.0646 22.7143 9.42857C22.7143 10.7925 22.1724 12.1006 21.2079 13.0651C20.2435 14.0296 18.9353 14.5714 17.5714 14.5714H8.57143C7.18864 14.5727 5.83403 14.1806 4.66584 13.4406C3.4974 12.7005 2.56377 11.6431 1.97409 10.392C1.38439 9.14091 1.16299 7.7478 1.33578 6.37553C1.50857 5.00325 2.06841 3.70851 2.94984 2.64264C3.83128 1.57678 4.99788 0.78383 6.31332 0.356486ZM8.95007 18.1464C9.26762 17.5113 9.01019 16.739 8.37508 16.4215C7.73995 16.1039 6.96767 16.3613 6.6501 16.9964L5.79295 18.7107C5.4754 19.3459 5.73283 20.1182 6.36796 20.4357C7.00307 20.7533 7.77535 20.4958 8.09292 19.8607L8.95007 18.1464ZM16.7749 16.4215C17.4099 16.739 17.6674 17.5113 17.3499 18.1464L16.4928 19.8607C16.1752 20.4958 15.4029 20.7533 14.7678 20.4357C14.1327 20.1182 13.8752 19.3459 14.1928 18.7107L15.0499 16.9964C15.3675 16.3613 16.1398 16.1039 16.7749 16.4215ZM12.2928 21.575C12.6104 20.9398 12.353 20.1675 11.7179 19.8501C11.0827 19.5324 10.3104 19.7899 9.99288 20.425L9.13574 22.1393C8.81817 22.7745 9.0756 23.5467 9.71073 23.8642C10.3458 24.1819 11.1181 23.9244 11.4357 23.2893L12.2928 21.575ZM3.318 19.8501C3.95313 20.1675 4.21056 20.9398 3.89299 21.575L3.03585 23.2893C2.7183 23.9244 1.94601 24.1819 1.31089 23.8642C0.675775 23.5467 0.418345 22.7745 0.735902 22.1393L1.59305 20.425C1.91061 19.7899 2.6829 19.5324 3.318 19.8501ZM20.6926 21.575C21.0103 20.9398 20.7528 20.1675 20.1177 19.8501C19.4825 19.5324 18.7102 19.7899 18.3927 20.425L17.5356 22.1393C17.2179 22.7745 17.4754 23.5467 18.1106 23.8642C18.7457 24.1819 19.518 23.9244 19.8355 23.2893L20.6926 21.575Z" fill="black"/>
<path fill-rule="evenodd" clip-rule="evenodd" d="M6.31332 0.356486C7.62876 -0.0708585 9.03866 -0.114942 10.3782 0.229389C11.7178 0.57372 12.9317 1.29224 13.878 2.30095C14.5482 3.01539 15.0646 3.85449 15.4006 4.76604C16.076 4.45404 16.815 4.28823 17.5685 4.28571H17.5714C18.9353 4.28571 20.2435 4.82755 21.2079 5.79202C22.1724 6.7565 22.7143 8.0646 22.7143 9.42857C22.7143 10.7925 22.1724 12.1006 21.2079 13.0651C20.2435 14.0296 18.9353 14.5714 17.5714 14.5714H8.57143C7.18864 14.5727 5.83403 14.1806 4.66584 13.4406C3.4974 12.7005 2.56377 11.6431 1.97409 10.392C1.38439 9.14091 1.16299 7.7478 1.33578 6.37553C1.50857 5.00325 2.06841 3.70851 2.94984 2.64264C3.83128 1.57678 4.99788 0.78383 6.31332 0.356486ZM8.95007 18.1464C9.26762 17.5113 9.01019 16.739 8.37508 16.4215C7.73995 16.1039 6.96767 16.3613 6.6501 16.9964L5.79295 18.7107C5.4754 19.3459 5.73283 20.1182 6.36796 20.4357C7.00307 20.7533 7.77535 20.4958 8.09292 19.8607L8.95007 18.1464ZM16.7749 16.4215C17.4099 16.739 17.6674 17.5113 17.3499 18.1464L16.4928 19.8607C16.1752 20.4958 15.4029 20.7533 14.7678 20.4357C14.1327 20.1182 13.8752 19.3459 14.1928 18.7107L15.0499 16.9964C15.3675 16.3613 16.1398 16.1039 16.7749 16.4215ZM12.2928 21.575C12.6104 20.9398 12.353 20.1675 11.7179 19.8501C11.0827 19.5324 10.3104 19.7899 9.99288 20.425L9.13574 22.1393C8.81817 22.7745 9.0756 23.5467 9.71073 23.8642C10.3458 24.1819 11.1181 23.9244 11.4357 23.2893L12.2928 21.575ZM3.318 19.8501C3.95313 20.1675 4.21056 20.9398 3.89299 21.575L3.03585 23.2893C2.7183 23.9244 1.94601 24.1819 1.31089 23.8642C0.675775 23.5467 0.418345 22.7745 0.735902 22.1393L1.59305 20.425C1.91061 19.7899 2.6829 19.5324 3.318 19.8501ZM20.6926 21.575C21.0103 20.9398 20.7528 20.1675 20.1177 19.8501C19.4825 19.5324 18.7102 19.7899 18.3927 20.425L17.5356 22.1393C17.2179 22.7745 17.4754 23.5467 18.1106 23.8642C18.7457 24.1819 19.518 23.9244 19.8355 23.2893L20.6926 21.575Z" fill="url(#paint0_linear_653_2798)"/>
</g>
<defs>
<linearGradient id="paint0_linear_653_2798" x1="11.6571" y1="0" x2="11.6571" y2="24.0003" gradientUnits="userSpaceOnUse">
<stop stop-color="#628FF6"/>
<stop offset="1" stop-color="#416CF4"/>
</linearGradient>
<clipPath id="clip0_653_2798">
<rect width="24" height="24" fill="white"/>
</clipPath>
</defs>
</svg>
