<svg width="24" height="24" viewBox="0 0 24 24" fill="none" xmlns="http://www.w3.org/2000/svg">
<g clip-path="url(#clip0_653_2800)">
<path d="M3.98701 16.5394C4.17549 16.6024 4.33127 16.7376 4.42014 16.9153C4.50902 17.093 4.52371 17.2988 4.46101 17.4874L3.71101 19.7374C3.68276 19.8342 3.63526 19.9244 3.57135 20.0024C3.50745 20.0805 3.42845 20.1449 3.33909 20.1917C3.24972 20.2385 3.15183 20.2668 3.05127 20.2749C2.95071 20.2831 2.84955 20.2708 2.75384 20.2389C2.65813 20.207 2.56984 20.1561 2.49425 20.0893C2.41867 20.0224 2.35734 19.9411 2.31394 19.85C2.27054 19.7589 2.24597 19.66 2.24168 19.5592C2.2374 19.4584 2.25349 19.3578 2.28901 19.2634L3.03901 17.0134C3.10198 16.8249 3.23719 16.6691 3.41494 16.5802C3.59268 16.4914 3.79843 16.4767 3.98701 16.5394ZM18.237 16.5394C18.4255 16.6024 18.5813 16.7376 18.6701 16.9153C18.759 17.093 18.7737 17.2988 18.711 17.4874L17.961 19.7374C17.8927 19.9189 17.7567 20.067 17.5816 20.1504C17.4065 20.2339 17.2059 20.2462 17.0218 20.1849C16.8378 20.1235 16.6847 19.9933 16.5947 19.8215C16.5046 19.6496 16.4847 19.4496 16.539 19.2634L17.289 17.0134C17.352 16.8249 17.4872 16.6691 17.6649 16.5802C17.8427 16.4914 18.0484 16.4767 18.237 16.5394ZM6.98701 18.7894C7.17549 18.8524 7.33127 18.9876 7.42014 19.1653C7.50902 19.343 7.52371 19.5488 7.46101 19.7374L6.71101 21.9874C6.68276 22.0842 6.63526 22.1744 6.57135 22.2524C6.50745 22.3305 6.42845 22.3949 6.33909 22.4417C6.24972 22.4885 6.15183 22.5168 6.05127 22.5249C5.95071 22.5331 5.84955 22.5208 5.75384 22.4889C5.65812 22.457 5.56984 22.4061 5.49425 22.3393C5.41867 22.2724 5.35734 22.1911 5.31394 22.1C5.27054 22.0089 5.24597 21.91 5.24168 21.8092C5.2374 21.7084 5.25349 21.6078 5.28901 21.5134L6.03901 19.2634C6.10198 19.0749 6.23719 18.9191 6.41494 18.8302C6.59268 18.7414 6.79843 18.7267 6.98701 18.7894ZM21.237 18.7894C21.4255 18.8524 21.5813 18.9876 21.6701 19.1653C21.759 19.343 21.7737 19.5488 21.711 19.7374L20.961 21.9874C20.8927 22.1689 20.7567 22.317 20.5816 22.4004C20.4065 22.4839 20.2059 22.4962 20.0218 22.4349C19.8378 22.3735 19.6847 22.2433 19.5947 22.0715C19.5046 21.8996 19.4847 21.6996 19.539 21.5134L20.289 19.2634C20.352 19.0749 20.4872 18.9191 20.6649 18.8302C20.8427 18.7414 21.0484 18.7267 21.237 18.7894ZM10.5795 16.9144C10.6419 16.79 10.7376 16.6853 10.856 16.6122C10.9744 16.5391 11.1108 16.5004 11.25 16.5004H12.75C12.8688 16.5005 12.9858 16.5288 13.0915 16.5829C13.1972 16.6371 13.2886 16.7156 13.358 16.812C13.4274 16.9084 13.4729 17.0199 13.4909 17.1373C13.5088 17.2547 13.4985 17.3747 13.461 17.4874L13.041 18.7504H14.25C14.3911 18.7506 14.5293 18.7906 14.6487 18.8658C14.7681 18.941 14.8639 19.0484 14.925 19.1757C14.9861 19.3029 15.0101 19.4447 14.9942 19.585C14.9782 19.7252 14.9231 19.8581 14.835 19.9684L11.835 23.7184C11.728 23.8513 11.5788 23.9438 11.4121 23.9805C11.2454 24.0172 11.0711 23.996 10.9181 23.9203C10.7652 23.8446 10.6426 23.7189 10.5706 23.5641C10.4987 23.4093 10.4817 23.2346 10.5225 23.0689L11.04 21.0004H9.75001C9.62211 21.0004 9.49634 20.9677 9.38465 20.9053C9.27295 20.843 9.17905 20.7532 9.11186 20.6444C9.04467 20.5356 9.00643 20.4114 9.00077 20.2836C8.9951 20.1558 9.02221 20.0287 9.07951 19.9144L10.5795 16.9144ZM20.1075 6.04087C19.796 4.47061 18.9903 3.04119 17.8083 1.96159C16.6263 0.881993 15.1299 0.208851 13.5379 0.0405853C11.9459 -0.12768 10.3418 0.217756 8.9602 1.02639C7.57859 1.83502 6.49189 3.06443 5.85901 4.53487C5.14926 4.45311 4.4303 4.51707 3.74613 4.72283C3.06197 4.9286 2.427 5.27184 1.8801 5.73154C1.3332 6.19124 0.885887 6.75772 0.565538 7.39631C0.245189 8.0349 0.0585491 8.73216 0.0170454 9.44539C-0.0244584 10.1586 0.0800474 10.8728 0.324164 11.5443C0.568281 12.2157 0.946872 12.8302 1.43676 13.3503C1.92664 13.8703 2.51752 14.2849 3.1732 14.5686C3.82888 14.8523 4.53557 14.9993 5.25001 15.0004H19.5C20.6417 15.0017 21.7412 14.569 22.5757 13.79C23.4103 13.011 23.9176 11.9438 23.9948 10.8048C24.0721 9.66575 23.7135 8.53992 22.9917 7.65538C22.2699 6.77083 21.2389 6.19369 20.1075 6.04087Z" fill="url(#paint0_linear_653_2800)"/>
<path d="M10.856 16.6118C10.7376 16.685 10.6419 16.7896 10.5795 16.914L9.07954 19.914C9.02224 20.0283 8.99513 20.1554 9.0008 20.2832C9.00646 20.411 9.0447 20.5352 9.11189 20.644C9.17908 20.7528 9.27299 20.8427 9.38468 20.905C9.49637 20.9673 9.62214 21 9.75004 21H11.04L10.5225 23.0685C10.4818 23.2343 10.4987 23.409 10.5707 23.5638C10.6426 23.7186 10.7652 23.8442 10.9182 23.9199C11.0712 23.9956 11.2454 24.0169 11.4121 23.9801C11.5788 23.9434 11.728 23.851 11.835 23.718L14.835 19.968C14.9231 19.8577 14.9783 19.7248 14.9942 19.5846C15.0101 19.4444 14.9861 19.3025 14.925 19.1753C14.8639 19.0481 14.7682 18.9407 14.6488 18.8654C14.5294 18.7902 14.3912 18.7502 14.25 18.75H13.041L13.461 17.487C13.4986 17.3743 13.5088 17.2543 13.4909 17.1369C13.473 17.0195 13.4274 16.908 13.358 16.8116C13.2886 16.7153 13.1973 16.6367 13.0916 16.5826C12.9859 16.5284 12.8688 16.5001 12.75 16.5H11.25C11.1109 16.5 10.9744 16.5387 10.856 16.6118Z" fill="#EABC53"/>
</g>
<defs>
<linearGradient id="paint0_linear_653_2800" x1="12.0067" y1="-0.000976562" x2="12.0067" y2="23.9981" gradientUnits="userSpaceOnUse">
<stop stop-color="#416CF4"/>
<stop offset="1" stop-color="#2C2C2C"/>
</linearGradient>
<clipPath id="clip0_653_2800">
<rect width="24" height="24" fill="white"/>
</clipPath>
</defs>
</svg>
