<svg width="24" height="24" viewBox="0 0 24 24" fill="none" xmlns="http://www.w3.org/2000/svg">
<g clip-path="url(#clip0_221_1590)">
<path fill-rule="evenodd" clip-rule="evenodd" d="M4.28571 0C3.14907 0 2.05898 0.451529 1.25526 1.25526C0.451529 2.05898 1.88749e-08 3.14907 1.88749e-08 4.28571V23.1429C-3.18029e-05 23.2945 0.0401739 23.4435 0.116514 23.5745C0.192854 23.7055 0.302594 23.814 0.434536 23.8888C0.566477 23.9635 0.715895 24.002 0.867539 24.0001C1.01918 23.9983 1.16763 23.9562 1.29771 23.8783L5.14286 21.5709L8.988 23.8783C9.12112 23.958 9.27339 24.0002 9.42857 24.0002C9.58376 24.0002 9.73603 23.958 9.86914 23.8783L13.7143 21.5709L17.5594 23.8783C17.6895 23.9562 17.838 23.9983 17.9896 24.0001C18.1412 24.002 18.2907 23.9635 18.4226 23.8888C18.5545 23.814 18.6643 23.7055 18.7406 23.5745C18.817 23.4435 18.8572 23.2945 18.8571 23.1429V10.2857H18.8657V4.28571C18.8657 4.00155 18.9786 3.72903 19.1795 3.5281C19.3805 3.32717 19.653 3.21429 19.9371 3.21429C20.2213 3.21429 20.4938 3.32717 20.6948 3.5281C20.8957 3.72903 21.0086 4.00155 21.0086 4.28571V10.2857H23.1429C23.3702 10.2857 23.5882 10.1954 23.7489 10.0347C23.9097 9.87392 24 9.6559 24 9.42857V3.42857C24 2.51926 23.6388 1.64719 22.9958 1.00421C22.3528 0.361224 21.4807 0 20.5714 0L4.28571 0ZM15.1097 8.56114C15.2261 8.43498 15.316 8.28681 15.3741 8.12536C15.4323 7.96391 15.4576 7.79245 15.4484 7.62108C15.4393 7.44972 15.3959 7.28191 15.3209 7.12756C15.2459 6.97322 15.1408 6.83544 15.0117 6.72237C14.8826 6.6093 14.7321 6.52322 14.5693 6.4692C14.4064 6.41518 14.2343 6.39431 14.0632 6.40783C13.8922 6.42135 13.7255 6.46898 13.5731 6.54791C13.4208 6.62685 13.2857 6.73549 13.176 6.86743L7.96114 12.828L5.48571 10.9714C5.35064 10.8701 5.19694 10.7964 5.03338 10.7545C4.86982 10.7126 4.6996 10.7033 4.53246 10.7272C4.36531 10.7511 4.20451 10.8077 4.05922 10.8937C3.91394 10.9797 3.78702 11.0935 3.68571 11.2286C3.58441 11.3636 3.5107 11.5174 3.4688 11.6809C3.42689 11.8445 3.41762 12.0147 3.44149 12.1818C3.46537 12.349 3.52194 12.5098 3.60796 12.6551C3.69399 12.8003 3.80778 12.9273 3.94286 13.0286L7.37143 15.6C7.63074 15.7944 7.95389 15.8836 8.2762 15.8499C8.5985 15.8162 8.8962 15.6621 9.10971 15.4183L15.1097 8.56114Z" fill="#31393B"/>
</g>
<defs>
<clipPath id="clip0_221_1590">
<rect width="24" height="24" fill="white"/>
</clipPath>
</defs>
</svg>
