<svg width="24" height="24" viewBox="0 0 24 24" fill="none" xmlns="http://www.w3.org/2000/svg">
<path d="M8.85714 2C9.36183 2 9.76786 2.41797 9.76786 2.9375V4.5H15.2321V2.9375C15.2321 2.41797 15.6382 2 16.1429 2C16.6475 2 17.0536 2.41797 17.0536 2.9375V4.5H18.5714C19.9109 4.5 21 5.62109 21 7V19.5C21 20.8789 19.9109 22 18.5714 22H6.42857C5.08906 22 4 20.8789 4 19.5V7C4 5.62109 5.08906 4.5 6.42857 4.5H7.94643V2.9375C7.94643 2.41797 8.35246 2 8.85714 2ZM19.1786 9.5H5.82143V19.5C5.82143 19.8438 6.09464 20.125 6.42857 20.125H18.5714C18.9054 20.125 19.1786 19.8438 19.1786 19.5V9.5ZM16.4844 13.6016L12.2344 17.9766C11.8777 18.3438 11.3009 18.3438 10.948 17.9766L8.51942 15.4766C8.16272 15.1094 8.16272 14.5156 8.51942 14.1523C8.87612 13.7891 9.4529 13.7852 9.8058 14.1523L11.5893 15.9883L15.1942 12.2773C15.5509 11.9102 16.1277 11.9102 16.4806 12.2773C16.8335 12.6445 16.8373 13.2383 16.4806 13.6016H16.4844Z" fill="black"/>
</svg>
