<svg width="24" height="24" viewBox="0 0 24 24" fill="none" xmlns="http://www.w3.org/2000/svg">
<path d="M18 20C18.5523 20 19 20.4477 19 21C19 21.5523 18.5523 22 18 22H9C8.44772 22 8 21.5523 8 21C8 20.4477 8.44772 20 9 20H18ZM7.7041 3.01074C8.71278 3.113 9.5 3.96435 9.5 5V7.82422L11.2002 12.5H18C19.1046 12.5 20 13.3954 20 14.5V16C20 17.1046 19.1046 18 18 18H10.1621C8.44046 17.9999 6.91163 16.898 6.36719 15.2646L4.05176 8.31641C4.01777 8.21444 4 8.10748 4 8V5C4 3.89543 4.89543 3 6 3H7.5L7.7041 3.01074Z" fill="black"/>
</svg>
