<svg width="80" height="80" viewBox="0 0 80 80" fill="none" xmlns="http://www.w3.org/2000/svg">
<path d="M79.2 53.0675C79.2 54.5108 78.03 55.6808 76.5866 55.6808H3.41333C1.40158 55.6787 0.146615 53.4995 1.1544 51.7584C1.62108 50.9521 2.48171 50.4552 3.41333 50.4542H16.627C16.5305 49.5864 16.4815 48.714 16.48 47.8408C16.48 29.7351 36.08 18.4191 51.76 27.4719C59.0371 31.6734 63.52 39.438 63.52 47.8408C63.5185 48.714 63.4695 49.5864 63.373 50.4542H76.5866C78.0299 50.4543 79.2 51.6243 79.2 53.0675ZM66.1333 63.5208H13.8666C11.8549 63.523 10.6 65.7022 11.6077 67.4433C12.0744 68.2496 12.9351 68.7465 13.8666 68.7475H66.1333C68.1451 68.7453 69.4 66.5662 68.3922 64.825C67.9256 64.0188 67.0649 63.5219 66.1333 63.5208ZM24.5944 20.2637C25.4946 22.0642 28.0064 22.2149 29.1156 20.535C29.6303 19.7554 29.6901 18.7603 29.2723 17.9247L26.6589 12.698C25.7587 10.8975 23.2469 10.7468 22.1377 12.4267C21.623 13.2063 21.5632 14.2013 21.9811 15.037L24.5944 20.2637ZM4.85718 34.4998L10.0839 37.1131C11.8831 38.0134 13.9822 36.6283 13.8622 34.6199C13.8065 33.6879 13.2578 32.8563 12.4228 32.4385L7.19611 29.8252C5.39686 28.9249 3.29777 30.31 3.41777 32.3183C3.47346 33.2504 4.02215 34.082 4.85718 34.4998ZM68.7467 37.3875C69.1514 37.3876 69.5506 37.2937 69.9129 37.1131L75.1395 34.4998C76.9388 33.5995 77.0887 31.0891 75.4095 29.981C74.6301 29.4668 73.6356 29.4074 72.8006 29.8252L67.5739 32.4385C65.7759 33.3409 65.6291 35.8513 67.3096 36.9572C67.7362 37.238 68.2359 37.3876 68.7467 37.3875ZM51.8972 21.4331C53.1889 22.08 54.7604 21.5562 55.4056 20.2637L58.0189 15.037C58.9192 13.2365 57.5327 11.1366 55.5233 11.2572C54.5907 11.3132 53.7589 11.8624 53.3411 12.698L50.7277 17.9247C50.0808 19.2164 50.6047 20.7879 51.8972 21.4331Z" fill="#8CA865"/>
</svg>
