<svg width="24" height="24" viewBox="0 0 24 24" fill="none" xmlns="http://www.w3.org/2000/svg">
<g clip-path="url(#clip0_653_2797)">
<path d="M11.0954 2.04887V1.14424C11.0954 0.44787 11.8492 0.0126446 12.4523 0.360823C12.7322 0.52242 12.9046 0.82106 12.9046 1.14424V2.04887C12.9046 2.74523 12.1508 3.18047 11.5477 2.83228C11.2678 2.67069 11.0954 2.37205 11.0954 2.04887ZM12 4.7627C6.42901 4.7627 2.94714 10.7935 5.73264 15.6181C8.51813 20.4427 15.4819 20.4427 18.2674 15.6181C18.9025 14.5179 19.2369 13.27 19.2369 11.9996C19.2326 8.0046 15.995 4.76707 12 4.7627ZM4.12306 5.40273C4.61574 5.89541 5.45702 5.66999 5.63735 4.99697C5.72105 4.68462 5.63175 4.35135 5.40309 4.12269L4.49847 3.21808C4.0058 2.72539 3.16452 2.95082 2.98418 3.62383C2.90049 3.93618 2.98979 4.26946 3.21845 4.4981L4.12306 5.40273ZM4.12306 18.5965L3.21845 19.5012C2.72576 19.9938 2.95118 20.8351 3.6242 21.0154C3.93654 21.0991 4.26982 21.0098 4.49847 20.7812L5.40309 19.8766C5.89578 19.3839 5.67035 18.5426 4.99733 18.3623C4.68499 18.2786 4.35171 18.3679 4.12306 18.5965ZM19.2369 5.66733C19.4769 5.66751 19.7071 5.57233 19.8769 5.40273L20.7816 4.49811C21.2742 4.00543 21.0488 3.16415 20.3758 2.98382C20.0634 2.90013 19.7302 2.98942 19.5015 3.21808L18.5969 4.12269C18.1042 4.61483 18.3291 5.45576 19.0016 5.63637C19.0783 5.65698 19.1575 5.66739 19.2369 5.66733ZM19.8769 18.5965C19.3843 18.1039 18.543 18.3293 18.3626 19.0023C18.279 19.3146 18.3682 19.6479 18.5969 19.8766L19.5015 20.7812C19.9942 21.2739 20.8355 21.0484 21.0158 20.3754C21.0995 20.0631 21.0102 19.7298 20.7816 19.5012L19.8769 18.5965ZM2.04923 11.095H1.14461C0.448236 11.095 0.0130108 11.8489 0.361189 12.4519C0.522776 12.7318 0.821436 12.9042 1.14461 12.9042H2.04923C2.7456 12.9042 3.18084 12.1504 2.83263 11.5473C2.67103 11.2674 2.3724 11.095 2.04923 11.095ZM12 21.0458C11.5004 21.0458 11.0954 21.4508 11.0954 21.9504V22.855C11.0954 23.5514 11.8492 23.9866 12.4523 23.6384C12.7322 23.4768 12.9046 23.1782 12.9046 22.855V21.9504C12.9046 21.4508 12.4996 21.0458 12 21.0458ZM22.8554 11.095H21.9508C21.2544 11.095 20.8192 11.8489 21.1674 12.452C21.329 12.7318 21.6276 12.9042 21.9508 12.9042H22.8554C23.5518 12.9042 23.987 12.1504 23.6388 11.5473C23.4772 11.2674 23.1786 11.095 22.8554 11.095Z" fill="#EABC53"/>
</g>
<defs>
<clipPath id="clip0_653_2797">
<rect width="24" height="24" fill="white"/>
</clipPath>
</defs>
</svg>
